<svg xmlns="http://www.w3.org/2000/svg" xmlns:xlink="http://www.w3.org/1999/xlink" width="336.852" height="118.5" viewBox="0 0 336.852 118.5"><defs><clipPath id="a"><rect width="84" height="86" fill="none"/></clipPath><filter id="c" x="206.852" y="7.5" width="99" height="90" filterUnits="userSpaceOnUse"><feOffset dy="3" input="SourceAlpha"/><feGaussianBlur stdDeviation="3" result="d"/><feFlood flood-opacity="0.161"/><feComposite operator="in" in2="d"/><feComposite in="SourceGraphic"/></filter><filter id="e" x="221.852" y="18.5" width="99" height="90" filterUnits="userSpaceOnUse"><feOffset dy="3" input="SourceAlpha"/><feGaussianBlur stdDeviation="3" result="f"/><feFlood flood-opacity="0.161"/><feComposite operator="in" in2="f"/><feComposite in="SourceGraphic"/></filter><filter id="g" x="237.852" y="28.5" width="99" height="90" filterUnits="userSpaceOnUse"><feOffset dy="3" input="SourceAlpha"/><feGaussianBlur stdDeviation="3" result="h"/><feFlood flood-opacity="0.161"/><feComposite operator="in" in2="h"/><feComposite in="SourceGraphic"/></filter></defs><g transform="translate(0.352)"><g transform="translate(-25 -62)"><g transform="translate(25 79)" clip-path="url(#a)"><g transform="translate(-25 -79)"><rect width="53.825" height="11.37" rx="5.685" transform="translate(28.553 82.553)" fill="rgba(210,41,41,0.25)"/><g transform="translate(25 79)" fill="none" stroke="#acacac" stroke-width="1"><rect width="83.855" height="17.766" stroke="none"/><rect x="0.5" y="0.5" width="82.855" height="16.766" fill="none"/></g></g><g transform="translate(58 -79)"><rect width="53.825" height="11.37" rx="5.685" transform="translate(28.553 82.553)" fill="rgba(210,41,41,0.25)"/><g transform="translate(25 79)" fill="none" stroke="#acacac" stroke-width="1"><rect width="83.855" height="17.766" stroke="none"/><rect x="0.5" y="0.5" width="82.855" height="16.766" fill="none"/></g></g><g transform="translate(-25 -62)"><rect width="53.825" height="11.37" rx="5.685" transform="translate(28.553 82.553)" fill="rgba(210,41,41,0.25)"/><g transform="translate(25 79)" fill="none" stroke="#acacac" stroke-width="1"><rect width="83.855" height="17.766" stroke="none"/><rect x="0.5" y="0.5" width="82.855" height="16.766" fill="none"/></g></g><g transform="translate(58 -62)"><rect width="53.825" height="11.37" rx="5.685" transform="translate(28.553 82.553)" fill="rgba(210,41,41,0.25)"/><g transform="translate(25 79)" fill="none" stroke="#acacac" stroke-width="1"><rect width="83.855" height="17.766" stroke="none"/><rect x="0.5" y="0.5" width="82.855" height="16.766" fill="none"/></g></g><g transform="translate(-25 -45)"><rect width="53.825" height="11.37" rx="5.685" transform="translate(28.553 82.553)" fill="rgba(210,41,41,0.25)"/><g transform="translate(25 79)" fill="none" stroke="#acacac" stroke-width="1"><rect width="83.855" height="17.766" stroke="none"/><rect x="0.5" y="0.5" width="82.855" height="16.766" fill="none"/></g></g><g transform="translate(58 -45)"><rect width="53.825" height="11.37" rx="5.685" transform="translate(28.553 82.553)" fill="rgba(210,41,41,0.25)"/><g transform="translate(25 79)" fill="none" stroke="#acacac" stroke-width="1"><rect width="83.855" height="17.766" stroke="none"/><rect x="0.5" y="0.5" width="82.855" height="16.766" fill="none"/></g></g><g transform="translate(-25 -28)"><rect width="53.825" height="11.37" rx="5.685" transform="translate(28.553 82.553)" fill="rgba(210,41,41,0.25)"/><g transform="translate(25 79)" fill="none" stroke="#acacac" stroke-width="1"><rect width="83.855" height="17.766" stroke="none"/><rect x="0.5" y="0.5" width="82.855" height="16.766" fill="none"/></g></g><g transform="translate(58 -28)"><rect width="53.825" height="11.37" rx="5.685" transform="translate(28.553 82.553)" fill="rgba(210,41,41,0.25)"/><g transform="translate(25 79)" fill="none" stroke="#acacac" stroke-width="1"><rect width="83.855" height="17.766" stroke="none"/><rect x="0.5" y="0.5" width="82.855" height="16.766" fill="none"/></g></g><g transform="translate(-25 -11)"><rect width="53.825" height="11.37" rx="5.685" transform="translate(28.553 82.553)" fill="rgba(210,41,41,0.25)"/><g transform="translate(25 79)" fill="none" stroke="#acacac" stroke-width="1"><rect width="83.855" height="17.766" stroke="none"/><rect x="0.5" y="0.5" width="82.855" height="16.766" fill="none"/></g></g><g transform="translate(58 -11)"><rect width="53.825" height="11.37" rx="5.685" transform="translate(28.553 82.553)" fill="rgba(210,41,41,0.25)"/><g transform="translate(25 79)" fill="none" stroke="#acacac" stroke-width="1"><rect width="83.855" height="17.766" stroke="none"/><rect x="0.5" y="0.5" width="82.855" height="16.766" fill="none"/></g></g><g transform="translate(-25 6)"><rect width="53.825" height="11.37" rx="5.685" transform="translate(28.553 82.553)" fill="rgba(210,41,41,0.25)"/><g transform="translate(25 79)" fill="none" stroke="#acacac" stroke-width="1"><rect width="83.855" height="17.766" stroke="none"/><rect x="0.5" y="0.5" width="82.855" height="16.766" fill="none"/></g></g><g transform="translate(58 6)"><rect width="53.825" height="11.37" rx="5.685" transform="translate(28.553 82.553)" fill="rgba(210,41,41,0.25)"/><g transform="translate(25 79)" fill="none" stroke="#acacac" stroke-width="1"><rect width="83.855" height="17.766" stroke="none"/><rect x="0.5" y="0.5" width="82.855" height="16.766" fill="none"/></g></g></g><path d="M4.87,0H48.093c2.69,0,4.87,2.545,4.87,5.685s-2.18,5.685-4.87,5.685H4.87C2.18,11.37,0,8.825,0,5.685S2.18,0,4.87,0Z" transform="translate(28.553 65.553)" fill="#c4c4c4"/><path d="M4.87,0H48.093c2.69,0,4.87,2.545,4.87,5.685s-2.18,5.685-4.87,5.685H4.87C2.18,11.37,0,8.825,0,5.685S2.18,0,4.87,0Z" transform="translate(112.553 65.553)" fill="#c4c4c4"/><g transform="translate(25 62)" fill="none" stroke="#acacac" stroke-width="1"><rect width="83.855" height="17.766" stroke="none"/><rect x="0.5" y="0.5" width="82.855" height="16.766" fill="none"/></g><g transform="translate(108 62)" fill="none" stroke="#acacac" stroke-width="1"><rect width="83.855" height="17.766" stroke="none"/><rect x="0.5" y="0.5" width="82.855" height="16.766" fill="none"/></g><g transform="translate(108 79)" clip-path="url(#a)"><g transform="translate(-25 -79)"><rect width="76.825" height="11.37" rx="5.685" transform="translate(28.553 82.553)" fill="rgba(42,195,67,0.18)"/><g transform="translate(25 79)" fill="none" stroke="#acacac" stroke-width="1"><rect width="83.855" height="17.766" stroke="none"/><rect x="0.5" y="0.5" width="82.855" height="16.766" fill="none"/></g></g><g transform="translate(58 -79)"><rect width="76.825" height="11.37" rx="5.685" transform="translate(28.553 82.553)" fill="rgba(42,195,67,0.18)"/><g transform="translate(25 79)" fill="none" stroke="#acacac" stroke-width="1"><rect width="83.855" height="17.766" stroke="none"/><rect x="0.5" y="0.5" width="82.855" height="16.766" fill="none"/></g></g><g transform="translate(-25 -62)"><rect width="76.825" height="11.37" rx="5.685" transform="translate(28.553 82.553)" fill="rgba(42,195,67,0.18)"/><g transform="translate(25 79)" fill="none" stroke="#acacac" stroke-width="1"><rect width="83.855" height="17.766" stroke="none"/><rect x="0.5" y="0.5" width="82.855" height="16.766" fill="none"/></g></g><g transform="translate(58 -62)"><rect width="76.825" height="11.37" rx="5.685" transform="translate(28.553 82.553)" fill="rgba(42,195,67,0.18)"/><g transform="translate(25 79)" fill="none" stroke="#acacac" stroke-width="1"><rect width="83.855" height="17.766" stroke="none"/><rect x="0.5" y="0.5" width="82.855" height="16.766" fill="none"/></g></g><g transform="translate(-25 -45)"><rect width="76.825" height="11.37" rx="5.685" transform="translate(28.553 82.553)" fill="rgba(42,195,67,0.18)"/><g transform="translate(25 79)" fill="none" stroke="#acacac" stroke-width="1"><rect width="83.855" height="17.766" stroke="none"/><rect x="0.5" y="0.5" width="82.855" height="16.766" fill="none"/></g></g><g transform="translate(58 -45)"><rect width="76.825" height="11.37" rx="5.685" transform="translate(28.553 82.553)" fill="rgba(42,195,67,0.18)"/><g transform="translate(25 79)" fill="none" stroke="#acacac" stroke-width="1"><rect width="83.855" height="17.766" stroke="none"/><rect x="0.5" y="0.5" width="82.855" height="16.766" fill="none"/></g></g><g transform="translate(-25 -28)"><rect width="76.825" height="11.37" rx="5.685" transform="translate(28.553 82.553)" fill="rgba(42,195,67,0.18)"/><g transform="translate(25 79)" fill="none" stroke="#acacac" stroke-width="1"><rect width="83.855" height="17.766" stroke="none"/><rect x="0.5" y="0.5" width="82.855" height="16.766" fill="none"/></g></g><g transform="translate(58 -28)"><rect width="76.825" height="11.37" rx="5.685" transform="translate(28.553 82.553)" fill="rgba(42,195,67,0.18)"/><g transform="translate(25 79)" fill="none" stroke="#acacac" stroke-width="1"><rect width="83.855" height="17.766" stroke="none"/><rect x="0.5" y="0.5" width="82.855" height="16.766" fill="none"/></g></g><g transform="translate(-25 -11)"><rect width="76.825" height="11.37" rx="5.685" transform="translate(28.553 82.553)" fill="rgba(42,195,67,0.18)"/><g transform="translate(25 79)" fill="none" stroke="#acacac" stroke-width="1"><rect width="83.855" height="17.766" stroke="none"/><rect x="0.5" y="0.5" width="82.855" height="16.766" fill="none"/></g></g><g transform="translate(58 -11)"><rect width="76.825" height="11.37" rx="5.685" transform="translate(28.553 82.553)" fill="rgba(42,195,67,0.18)"/><g transform="translate(25 79)" fill="none" stroke="#acacac" stroke-width="1"><rect width="83.855" height="17.766" stroke="none"/><rect x="0.5" y="0.5" width="82.855" height="16.766" fill="none"/></g></g><g transform="translate(-25 6)"><rect width="76.825" height="11.37" rx="5.685" transform="translate(28.553 82.553)" fill="rgba(42,195,67,0.18)"/><g transform="translate(25 79)" fill="none" stroke="#acacac" stroke-width="1"><rect width="83.855" height="17.766" stroke="none"/><rect x="0.5" y="0.5" width="82.855" height="16.766" fill="none"/></g></g><g transform="translate(58 6)"><rect width="76.825" height="11.37" rx="5.685" transform="translate(28.553 82.553)" fill="rgba(42,195,67,0.18)"/><g transform="translate(25 79)" fill="none" stroke="#acacac" stroke-width="1"><rect width="83.855" height="17.766" stroke="none"/><rect x="0.5" y="0.5" width="82.855" height="16.766" fill="none"/></g></g></g></g><g transform="translate(-152 -155)"><g transform="translate(151.662 212.147)" fill="#fff"><path d="M43.676,0V59.853H0V13.134L13.962,0Z" stroke="none"/><path d="M 14.35835647583008 0.9999961853027344 L 0.9999961853027344 13.56628036499023 L 0.9999961853027344 58.8534049987793 L 42.67647933959961 58.8534049987793 L 42.67647933959961 0.9999961853027344 L 14.35835647583008 0.9999961853027344 M 13.96192741394043 -3.814697265625e-06 L 43.67647933959961 -3.814697265625e-06 L 43.67647933959961 59.8534049987793 L -3.814697265625e-06 59.8534049987793 L -3.814697265625e-06 13.13406372070313 L 13.96192741394043 -3.814697265625e-06 Z" stroke="none" fill="rgba(112,112,112,0.84)"/></g><path d="M0,0H13.9" transform="translate(151.993 225.618)" fill="#fff" stroke="rgba(112,112,112,0.84)" stroke-width="1"/><line y2="13.235" transform="translate(165.89 212.477)" fill="none" stroke="rgba(112,112,112,0.84)" stroke-width="1"/><line y1="13.235" x2="13.897" transform="translate(151.993 212.477)" fill="none" stroke="rgba(112,112,112,0.84)" stroke-width="1"/><text transform="translate(158 267)" fill="#413636" font-size="20" font-family="SegoeUI, Segoe UI"><tspan x="0" y="0">.xlsx</tspan></text></g><g transform="translate(-35 -72)"><g transform="translate(-8 -54)" opacity="0.5"><g transform="matrix(1, 0, 0, 1, 42.65, 126)" filter="url(#c)"><rect width="80" height="71" transform="translate(216.35 14)" fill="#fff" stroke="#707070" stroke-width="1"/></g><rect width="53" height="12" rx="6" transform="translate(262 144)" fill="#f4c9c9"/><rect width="62" height="7" rx="3.5" transform="translate(268 163)" fill="#d8f4dd"/><rect width="62" height="7" rx="3.5" transform="translate(268 176)" fill="#d8f4dd"/><rect width="32" height="7" rx="3.5" transform="translate(268 187)" fill="#d8f4dd"/><g transform="translate(33.22 11.228)"><g transform="translate(289 184)" fill="#fff" stroke="#707070" stroke-width="1" opacity="0.4"><rect width="14.78" height="13.772" stroke="none"/><rect x="0.5" y="0.5" width="13.78" height="12.772" fill="none"/></g><g transform="translate(292.527 185.847)" opacity="0.93"><line x2="3.359" y2="3.916" transform="translate(0 6.382)" fill="none" stroke="#707070" stroke-linecap="round" stroke-width="3"/><line x1="4.692" y2="10.298" transform="translate(3.359 0)" fill="none" stroke="#707070" stroke-linecap="round" stroke-width="3"/></g></g></g><g transform="translate(7 -43)" opacity="0.84"><g transform="matrix(1, 0, 0, 1, 27.65, 115)" filter="url(#e)"><rect width="80" height="71" transform="translate(231.35 25)" fill="#fff" stroke="#707070" stroke-width="1"/></g><rect width="53" height="12" rx="6" transform="translate(262 144)" fill="#f4c9c9"/><rect width="62" height="7" rx="3.5" transform="translate(268 163)" fill="#d8f4dd"/><rect width="62" height="7" rx="3.5" transform="translate(268 176)" fill="#d8f4dd"/><rect width="32" height="7" rx="3.5" transform="translate(268 187)" fill="#d8f4dd"/><g transform="translate(33.22 11.228)"><g transform="translate(289 184)" fill="#fff" stroke="#707070" stroke-width="1" opacity="0.4"><rect width="14.78" height="13.772" stroke="none"/><rect x="0.5" y="0.5" width="13.78" height="12.772" fill="none"/></g><g transform="translate(292.527 185.847)" opacity="0.93"><line x2="3.359" y2="3.916" transform="translate(0 6.382)" fill="none" stroke="#707070" stroke-linecap="round" stroke-width="3"/><line x1="4.692" y2="10.298" transform="translate(3.359 0)" fill="none" stroke="#707070" stroke-linecap="round" stroke-width="3"/></g></g></g><g transform="translate(23 -33)"><g transform="matrix(1, 0, 0, 1, 11.65, 105)" filter="url(#g)"><rect width="80" height="71" transform="translate(247.35 35)" fill="#fff" stroke="#707070" stroke-width="1"/></g><rect width="53" height="12" rx="6" transform="translate(262 144)" fill="#f4c9c9"/><rect width="62" height="7" rx="3.5" transform="translate(268 163)" fill="#d8f4dd"/><rect width="62" height="7" rx="3.5" transform="translate(268 176)" fill="#d8f4dd"/><rect width="32" height="7" rx="3.5" transform="translate(268 187)" fill="#d8f4dd"/><g transform="translate(33.22 11.228)"><g transform="translate(289 184)" fill="#fff" stroke="#707070" stroke-width="1" opacity="0.4"><rect width="14.78" height="13.772" stroke="none"/><rect x="0.5" y="0.5" width="13.78" height="12.772" fill="none"/></g><g transform="translate(292.527 185.847)" opacity="0.93"><line x2="3.359" y2="3.916" transform="translate(0 6.382)" fill="none" stroke="#707070" stroke-linecap="round" stroke-width="3"/><line x1="4.692" y2="10.298" transform="translate(3.359 0)" fill="none" stroke="#707070" stroke-linecap="round" stroke-width="3"/></g></g></g></g><g transform="translate(-107.602 -249.72)" opacity="0.84"><g transform="translate(214.797 274.797)"><path d="M0,0H54.616V54.616H0Z" fill="rgba(0,0,0,0)"/><path d="M40.262,13.9l-6.349,6.349a1.14,1.14,0,0,0,.8,1.957h4.073A13.665,13.665,0,0,1,25.129,35.859a13.251,13.251,0,0,1-5.12-1,2.187,2.187,0,0,0-2.367.523,2.281,2.281,0,0,0,.774,3.732,17.813,17.813,0,0,0,6.713,1.3A18.2,18.2,0,0,0,43.334,22.205h4.073a1.126,1.126,0,0,0,.8-1.934l-6.349-6.349a1.12,1.12,0,0,0-1.593-.023ZM11.475,22.205A13.665,13.665,0,0,1,25.129,8.551a13.251,13.251,0,0,1,5.12,1,2.187,2.187,0,0,0,2.367-.523A2.281,2.281,0,0,0,31.842,5.3,17.813,17.813,0,0,0,25.129,4,18.2,18.2,0,0,0,6.923,22.205H2.85a1.126,1.126,0,0,0-.8,1.934L8.4,30.489a1.127,1.127,0,0,0,1.616,0l6.349-6.349a1.138,1.138,0,0,0-.819-1.934Z" transform="translate(2.179 5.103)"/></g><g transform="translate(228.794 291.051)"><path d="M0,0H54.158V54.158H0Z" fill="rgba(0,0,0,0)"/><path d="M48.608,13.889H-12.439A2.43,2.43,0,0,0-15,16.146,2.43,2.43,0,0,0-12.439,18.4H48.608v4.039a1.294,1.294,0,0,0,2.176.79l7.118-6.3a1.062,1.062,0,0,0,0-1.6l-7.118-6.3a1.3,1.3,0,0,0-2.176.79Z" transform="translate(28.54 10.933)"/></g></g></g></svg>